M48
; DRILL file {KiCad (5.1.0)-1} date 11.03.2021 20:45:05
; FORMAT={-:-/ absolute / inch / decimal}
; #@! TF.CreationDate,2021-03-11T20:45:05+01:00
; #@! TF.GenerationSoftware,Kicad,Pcbnew,(5.1.0)-1
; #@! TF.FileFunction,Plated,1,2,PTH
FMAT,2
INCH
T1C0.0157
T2C0.0197
T3C0.0295
T4C0.0315
T5C0.0394
T6C0.0472
T7C0.0512
T8C0.0551
T9C0.0709
T10C0.0866
%
G90
G05
T1
X5.372Y-4.201
X5.494Y-3.955
X5.501Y-4.2
X5.522Y-3.867
X6.824Y-7.255
X8.083Y-5.7615
X8.1905Y-5.724
X9.077Y-7.281
X9.09Y-7.326
X11.595Y-5.66
X12.0695Y-7.002
X12.219Y-5.809
T2
X2.785Y-5.231
X2.883Y-6.001
X3.014Y-8.322
X3.126Y-8.319
X3.228Y-8.28
X3.276Y-8.183
X3.328Y-8.432
X3.393Y-8.112
X3.4142Y-5.323
X3.4522Y-5.657
X3.492Y-4.844
X3.496Y-5.802
X3.5292Y-5.7264
X4.381Y-8.489
X4.493Y-6.628
X4.588Y-6.694
X4.68Y-8.548
X4.7751Y-8.137
X4.876Y-8.096
X4.913Y-7.869
X4.953Y-6.364
X4.957Y-4.755
X5.008Y-8.319
X5.062Y-6.436
X5.073Y-4.996
X5.127Y-6.46
X5.306Y-6.434
X5.338Y-7.989
X5.342Y-7.883
X5.416Y-8.001
X5.521Y-7.839
X5.523Y-7.986
X5.546Y-6.776
X5.598Y-6.676
X5.599Y-6.731
X5.707Y-6.732
X5.71Y-6.675
X5.723Y-4.847
X5.825Y-7.104
X5.832Y-7.696
X5.909Y-5.001
X5.9108Y-7.7484
X5.952Y-7.888
X5.9586Y-6.2824
X5.966Y-6.954
X6.009Y-7.696
X6.071Y-6.862
X6.219Y-5.449
X6.22Y-5.773
X6.2796Y-5.858
X6.377Y-7.048
X6.408Y-6.885
X6.4586Y-6.4734
X6.516Y-7.8016
X6.518Y-4.709
X6.527Y-6.768
X6.572Y-6.045
X6.573Y-7.7574
X6.619Y-5.445
X6.6338Y-7.8386
X6.634Y-3.776
X6.746Y-4.758
X6.746Y-4.923
X6.8393Y-6.2843
X6.861Y-4.706
X6.88Y-6.495
X6.889Y-4.777
X6.901Y-4.837
X6.917Y-3.328
X6.919Y-4.08
X6.944Y-3.402
X6.961Y-4.839
X6.979Y-2.889
X7.001Y-3.837
X7.019Y-5.834
X7.022Y-6.321
X7.022Y-6.699
X7.027Y-5.894
X7.0548Y-5.7718
X7.077Y-6.582
X7.094Y-5.7276
X7.113Y-5.173
X7.129Y-4.7294
X7.135Y-3.763
X7.17Y-8.517
X7.179Y-4.463
X7.182Y-3.843
X7.186Y-6.535
X7.194Y-2.936
X7.217Y-3.173
X7.275Y-6.9585
X7.283Y-6.441
X7.285Y-3.846
X7.308Y-3.12
X7.33Y-3.521
X7.3303Y-6.6227
X7.3435Y-5.1845
X7.378Y-3.079
X7.38Y-3.849
X7.381Y-6.443
X7.4014Y-7.8614
X7.426Y-4.8005
X7.429Y-3.26
X7.4665Y-6.9585
X7.5Y-3.022
X7.5152Y-6.318
X7.5164Y-6.9152
X7.5225Y-5.2665
X7.528Y-4.839
X7.539Y-4.9155
X7.5835Y-5.7875
X7.584Y-3.22
X7.683Y-3.892
X7.719Y-5.729
X7.731Y-6.857
X7.775Y-2.914
X7.794Y-3.059
X7.8222Y-4.5322
X7.823Y-2.88
X7.829Y-4.907
X7.829Y-5.1
X7.8296Y-5.6638
X7.8298Y-6.2286
X7.83Y-6.807
X7.83Y-8.49
X7.881Y-8.294
X7.933Y-8.466
X7.939Y-6.739
X7.98Y-5.743
X7.98Y-6.081
X7.984Y-8.312
X8.029Y-3.868
X8.031Y-8.479
X8.079Y-7.062
X8.083Y-8.329
X8.113Y-4.622
X8.13Y-3.676
X8.13Y-6.66
X8.131Y-8.505
X8.167Y-5.837
X8.1775Y-3.5145
X8.23Y-3.713
X8.231Y-8.536
X8.25Y-6.0995
X8.274Y-3.114
X8.277Y-3.901
X8.278Y-3.26
X8.281Y-5.6612
X8.282Y-5.0575
X8.285Y-8.372
X8.316Y-4.622
X8.331Y-8.554
X8.335Y-3.112
X8.371Y-5.861
X8.381Y-8.411
X8.409Y-3.7525
X8.423Y-6.661
X8.43Y-8.591
X8.4486Y-6.2534
X8.4795Y-5.7615
X8.48Y-5.659
X8.482Y-3.059
X8.502Y-3.115
X8.531Y-3.7885
X8.531Y-8.6171
X8.582Y-5.217
X8.582Y-5.8337
X8.6531Y-5.8022
X8.68Y-6.1293
X8.683Y-5.216
X8.729Y-5.86
X8.7303Y-6.5353
X8.7615Y-2.928
X8.7615Y-3.076
X8.78Y-6.1535
X8.783Y-3.5495
X8.783Y-3.826
X8.784Y-5.217
X8.82Y-4.564
X8.8303Y-4.8807
X8.8303Y-6.5873
X8.8655Y-3.0865
X8.879Y-3.7925
X8.88Y-6.1762
X8.9303Y-4.8823
X8.9303Y-6.6223
X8.96Y-2.928
X8.96Y-3.08
X8.995Y-6.913
X9.0084Y-8.2222
X9.026Y-3.656
X9.0335Y-3.496
X9.04Y-6.961
X9.0538Y-8.1974
X9.0605Y-2.928
X9.061Y-3.081
X9.066Y-4.463
X9.079Y-6.838
X9.081Y-6.255
X9.084Y-6.908
X9.092Y-4.557
X9.094Y-4.609
X9.096Y-4.657
X9.1006Y-8.1686
X9.103Y-7.744
X9.11Y-3.1645
X9.125Y-7.79
X9.127Y-5.901
X9.1301Y-3.868
X9.1325Y-3.774
X9.148Y-6.665
X9.153Y-8.159
X9.154Y-5.86
X9.1605Y-2.928
X9.1642Y-8.1052
X9.172Y-6.402
X9.184Y-3.299
X9.196Y-5.988
X9.201Y-6.81
X9.223Y-6.348
X9.248Y-6.946
X9.2605Y-2.928
X9.262Y-6.2785
X9.293Y-6.897
X9.3155Y-5.857
X9.319Y-3.6171
X9.3545Y-5.8265
X9.3605Y-2.928
X9.372Y-5.779
X9.375Y-5.607
X9.409Y-7.1
X9.413Y-3.6171
X9.459Y-3.573
X9.4605Y-2.928
X9.511Y-3.6171
X9.512Y-5.056
X9.5285Y-4.6265
X9.534Y-4.242
X9.558Y-3.535
X9.558Y-5.021
X9.5605Y-2.928
X9.575Y-5.157
X9.579Y-4.403
X9.583Y-5.265
X9.597Y-4.976
X9.599Y-5.063
X9.614Y-3.6171
X9.623Y-5.593
X9.624Y-5.165
X9.647Y-5.365
X9.6605Y-2.928
X9.672Y-6.808
X9.6728Y-6.5116
X9.679Y-4.669
X9.711Y-3.6171
X9.76Y-5.476
X9.7605Y-2.928
X9.81Y-3.6171
X9.8235Y-3.74
X9.825Y-7.812
X9.838Y-5.939
X9.8385Y-6.295
X9.86Y-2.929
X9.878Y-8.077
X9.884Y-3.283
X9.928Y-4.593
X9.937Y-6.556
X9.9375Y-4.2325
X9.938Y-5.893
X9.9385Y-6.272
X9.9485Y-3.084
X9.954Y-3.0215
X9.9605Y-2.928
X9.988Y-4.564
X10.009Y-3.002
X10.022Y-3.2295
X10.039Y-6.253
X10.0585Y-3.1545
X10.0735Y-3.6171
X10.0885Y-4.5385
X10.113Y-2.962
X10.134Y-4.601
X10.134Y-4.6935
X10.1365Y-3.0585
X10.445Y-5.834
X10.501Y-8.1305
X10.515Y-8.057
X10.538Y-5.047
X10.6422Y-5.7506
X10.7585Y-5.492
X10.798Y-5.775
X10.828Y-6.402
X10.837Y-5.259
X10.85Y-5.621
X10.975Y-6.405
X11.032Y-5.743
X11.0375Y-6.4315
X11.043Y-6.311
X11.0606Y-5.5146
X11.071Y-5.796
X11.0832Y-5.1668
X11.152Y-6.3545
X11.238Y-6.318
X11.289Y-4.496
X11.329Y-2.504
X11.389Y-4.465
X11.413Y-5.988
X11.448Y-5.235
X11.464Y-2.521
X11.538Y-4.4675
X11.5881Y-5.349
X11.745Y-5.8895
X11.7995Y-8.6535
X11.903Y-4.542
X11.919Y-5.373
X11.9715Y-8.6535
X12.0135Y-7.403
X12.0215Y-7.6025
X12.028Y-7.504
X12.071Y-7.103
X12.072Y-7.2025
X12.077Y-7.303
X12.1315Y-7.703
X12.1515Y-6.281
X12.192Y-6.242
X12.2435Y-6.215
X12.62Y-7.122
X12.63Y-7.603
X12.683Y-7.303
X12.718Y-7.481
X13.3677Y-4.049
X13.375Y-3.9951
X13.423Y-5.82
X13.4326Y-4.001
X13.463Y-5.625
T3
X6.695Y-7.372
X6.745Y-7.322
X6.745Y-7.422
T4
X4.251Y-6.253
X4.3324Y-6.2922
X5.1011Y-4.1859
X5.167Y-4.186
X5.2675Y-6.1255
X5.639Y-4.677
X5.639Y-4.737
X5.804Y-4.371
X5.914Y-3.887
X5.945Y-3.742
X5.983Y-5.971
X5.983Y-6.035
X7.7303Y-4.1087
X7.7303Y-4.1687
X8.9304Y-4.2514
X9.232Y-4.2514
X9.232Y-4.3144
X9.253Y-5.182
X9.295Y-5.27
X10.2121Y-3.047
X10.2121Y-3.112
X11.144Y-3.569
X11.21Y-3.569
X11.296Y-2.336
X11.296Y-2.402
X11.895Y-5.596
X2.4129Y-5.0896
X2.4129Y-5.3849
X6.519Y-5.6841
X6.519Y-6.1762
X4.873Y-5.502
X5.0108Y-5.502
X6.0035Y-3.6171
X6.0035Y-4.1093
X10.7381Y-5.94
X11.2303Y-5.94
X11.3342Y-5.2707
X11.8263Y-5.2707
X6.2948Y-4.4132
X6.7869Y-4.4132
X12.0625Y-2.9872
X12.5547Y-2.9872
X13.3224Y-6.0581
X13.8145Y-6.0581
X6.698Y-7.6539
X6.698Y-8.146
X6.2944Y-4.3138
X6.7865Y-4.3138
X13.5192Y-5.8219
X10.8043Y-8.6565
X11.2964Y-8.6565
X4.6019Y-4.7982
X4.6019Y-5.2904
X2.4484Y-2.7982
X2.9405Y-2.7982
X3.5783Y-4.4833
X4.0704Y-4.4833
X10.6649Y-5.3888
X11.157Y-5.3888
X5.1334Y-8.0266
X5.6255Y-8.0266
X12.0429Y-5.5069
X12.535Y-5.5069
X12.0629Y-4.035
X12.555Y-4.035
X5.5842Y-5.3289
X5.5842Y-5.821
X11.7791Y-3.6762
X11.7791Y-4.1683
X10.8617Y-7.5145
X11.3539Y-7.5145
X13.3224Y-6.812
X13.8145Y-6.812
X12.0429Y-6.0974
X12.535Y-6.0974
X13.5192Y-5.94
X12.0057Y-4.3557
X12.0057Y-4.8478
X2.4129Y-5.5896
X2.4129Y-5.8849
X3.6964Y-4.9163
X4.1885Y-4.9163
X6.052Y-2.9872
X6.052Y-3.4793
X2.535Y-5.5872
X2.535Y-5.8872
X2.635Y-5.5872
X2.635Y-5.8872
X2.735Y-5.5872
X2.735Y-5.8872
X2.835Y-5.5872
X2.835Y-5.8872
X2.935Y-5.5872
X2.935Y-5.8872
X3.035Y-5.5872
X3.035Y-5.8872
X3.135Y-5.5872
X3.135Y-5.8872
X3.235Y-5.5872
X3.235Y-5.8872
X3.335Y-5.5872
X3.335Y-5.8872
X12.6728Y-6.0581
X13.1649Y-6.0581
X10.1728Y-3.7786
X10.6649Y-3.7786
X12.535Y-7.503
X13.0271Y-7.503
X5.4054Y-7.319
X5.8976Y-7.319
X11.1767Y-2.9675
X11.1767Y-3.4597
X13.3224Y-4.581
X13.8145Y-4.581
X7.0303Y-4.3951
X7.0303Y-4.9951
X7.1303Y-4.3951
X7.1303Y-4.9951
X7.2303Y-4.3951
X7.2303Y-4.9951
X7.3303Y-4.3951
X7.3303Y-4.9951
X7.4303Y-4.3951
X7.4303Y-4.9951
X7.5303Y-4.3951
X7.5303Y-4.9951
X7.6303Y-4.3951
X7.6303Y-4.9951
X7.7303Y-4.3951
X7.7303Y-4.9951
X7.8303Y-4.3951
X7.8303Y-4.9951
X7.9303Y-4.3951
X7.9303Y-4.9951
X8.0303Y-4.3951
X8.0303Y-4.9951
X8.1303Y-4.3951
X8.1303Y-4.9951
X8.2303Y-4.3951
X8.2303Y-4.9951
X8.3303Y-4.3951
X8.3303Y-4.9951
X8.4303Y-4.3951
X8.4303Y-4.9951
X8.5303Y-4.3951
X8.5303Y-4.9951
X8.6303Y-4.3951
X8.6303Y-4.9951
X8.7303Y-4.3951
X8.7303Y-4.9951
X8.8303Y-4.3951
X8.8303Y-4.9951
X8.9303Y-4.3951
X8.9303Y-4.9951
X6.5897Y-4.314
X3.472Y-8.765
X3.472Y-9.165
X2.6177Y-3.7313
X3.1098Y-3.7313
X12.535Y-6.903
X13.0271Y-6.903
X3.0271Y-8.0171
X3.0271Y-8.6171
X3.1271Y-8.0171
X3.1271Y-8.6171
X3.2271Y-8.0171
X3.2271Y-8.6171
X3.3271Y-8.0171
X3.3271Y-8.6171
X3.4271Y-8.0171
X3.4271Y-8.6171
X3.5271Y-8.0171
X3.5271Y-8.6171
X3.6271Y-8.0171
X3.6271Y-8.6171
X3.7271Y-8.0171
X3.7271Y-8.6171
X3.8271Y-8.0171
X3.8271Y-8.6171
X3.9271Y-8.0171
X3.9271Y-8.6171
X4.0271Y-8.0171
X4.0271Y-8.6171
X4.1271Y-8.0171
X4.1271Y-8.6171
X4.2271Y-8.0171
X4.2271Y-8.6171
X4.3271Y-8.0171
X4.3271Y-8.6171
X4.4271Y-8.0171
X4.4271Y-8.6171
X4.5271Y-8.0171
X4.5271Y-8.6171
X4.6271Y-8.0171
X4.6271Y-8.6171
X4.7271Y-8.0171
X4.7271Y-8.6171
X4.8271Y-8.0171
X4.8271Y-8.6171
X4.9271Y-8.0171
X4.9271Y-8.6171
X10.7381Y-5.0974
X11.2303Y-5.0974
X11.9247Y-6.7025
X12.4247Y-6.7025
X13.3224Y-4.4439
X13.8145Y-4.4439
X11.2751Y-3.2234
X11.7673Y-3.2234
X13.3224Y-6.688
X13.8145Y-6.688
X4.8973Y-5.938
X5.1688Y-3.9715
X5.1688Y-4.4636
X8.7134Y-2.6337
X8.7134Y-2.8337
X8.8134Y-2.6337
X8.8134Y-2.8337
X8.9134Y-2.6337
X8.9134Y-2.8337
X9.0134Y-2.6337
X9.0134Y-2.8337
X9.1134Y-2.6337
X9.1134Y-2.8337
X9.2134Y-2.6337
X9.2134Y-2.8337
X9.3134Y-2.6337
X9.3134Y-2.8337
X9.4134Y-2.6337
X9.4134Y-2.8337
X9.5134Y-2.6337
X9.5134Y-2.8337
X9.6134Y-2.6337
X9.6134Y-2.8337
X9.7134Y-2.6337
X9.7134Y-2.8337
X9.8134Y-2.6337
X9.8134Y-2.8337
X9.9134Y-2.6337
X9.9134Y-2.8337
X10.0134Y-2.6337
X10.0134Y-2.8337
X10.1134Y-2.6337
X10.1134Y-2.8337
X7.0429Y-8.3415
X7.0429Y-8.5345
X6.1373Y-3.6171
X6.1373Y-4.1093
X10.8421Y-3.9833
X11.3342Y-3.9833
X11.9247Y-7.203
X12.4169Y-7.203
X13.3224Y-5.1132
X13.8145Y-5.1132
X5.849Y-3.141
X5.849Y-3.341
X5.949Y-3.241
X10.8617Y-7.0967
X10.8617Y-7.3967
X10.9617Y-7.0967
X10.9617Y-7.3967
X11.0617Y-7.0967
X11.0617Y-7.3967
X11.1617Y-7.0967
X11.1617Y-7.3967
X11.2617Y-7.0967
X11.2617Y-7.3967
X11.3617Y-7.0967
X11.3617Y-7.3967
X11.4617Y-7.0967
X11.4617Y-7.3967
X11.5617Y-7.0967
X11.5617Y-7.3967
X7.477Y-7.8509
X5.8586Y-6.3799
X5.8586Y-6.6799
X5.9586Y-6.3799
X5.9586Y-6.6799
X6.0586Y-6.3799
X6.0586Y-6.6799
X6.1586Y-6.3799
X6.1586Y-6.6799
X6.2586Y-6.3799
X6.2586Y-6.6799
X6.3586Y-6.3799
X6.3586Y-6.6799
X6.4586Y-6.3799
X6.4586Y-6.6799
X6.5586Y-6.3799
X6.5586Y-6.6799
X6.6586Y-6.3799
X6.6586Y-6.6799
X6.7586Y-6.3799
X6.7586Y-6.6799
X6.0192Y-5.2463
X6.0192Y-5.5463
X6.1192Y-5.2463
X6.1192Y-5.5463
X6.2192Y-5.2463
X6.2192Y-5.5463
X6.3192Y-5.2463
X6.3192Y-5.5463
X6.4192Y-5.2463
X6.4192Y-5.5463
X6.5192Y-5.2463
X6.5192Y-5.5463
X6.6192Y-5.2463
X6.6192Y-5.5463
X6.7192Y-5.2463
X6.7192Y-5.5463
X3.802Y-9.157
X4.3066Y-7.3573
X4.7988Y-7.3573
X12.535Y-7.303
X13.0271Y-7.303
X6.719Y-4.5964
X6.719Y-5.0885
X5.468Y-6.232
X5.568Y-6.132
X5.668Y-6.232
X4.9562Y-4.066
X4.9562Y-4.5581
X3.0665Y-2.5856
X3.5586Y-2.5856
X9.8381Y-5.3644
X9.8381Y-5.6644
X9.9381Y-5.3644
X9.9381Y-5.6644
X10.0381Y-5.3644
X10.0381Y-5.6644
X10.1381Y-5.3644
X10.1381Y-5.6644
X10.2381Y-5.3644
X10.2381Y-5.6644
X10.3381Y-5.3644
X10.3381Y-5.6644
X10.4381Y-5.3644
X10.4381Y-5.6644
X10.5381Y-5.3644
X10.5381Y-5.6644
X13.3224Y-7.8297
X13.8145Y-7.8297
X3.605Y-9.049
X4.0971Y-9.049
X12.5057Y-4.3557
X12.5057Y-4.8478
X11.9247Y-7.003
X12.4169Y-7.003
X13.3224Y-4.2864
X13.8145Y-4.2864
X5.7205Y-4.5964
X5.7205Y-5.0885
X10.946Y-6.9242
X11.4381Y-6.9242
X10.1728Y-3.8809
X10.6649Y-3.8809
X12.6925Y-3.066
X13.1846Y-3.066
X5.252Y-6.358
X5.7441Y-6.358
X3.5783Y-4.7982
X4.0704Y-4.7982
X12.6057Y-4.3557
X12.6057Y-4.8478
X5.5468Y-4.066
X5.5468Y-4.5581
X12.535Y-7.003
X13.0271Y-7.003
X5.5468Y-2.9872
X5.5468Y-3.4793
X10.804Y-8.539
X11.2961Y-8.539
X12.6728Y-5.4675
X13.1649Y-5.4675
X5.919Y-4.5964
X5.919Y-5.0885
X12.0625Y-3.137
X12.5547Y-3.137
X13.3224Y-5.94
X13.8145Y-5.94
X3.6964Y-5.3888
X4.1885Y-5.3888
X9.8381Y-6.088
X9.8381Y-6.688
X9.9381Y-6.088
X9.9381Y-6.688
X10.0381Y-6.088
X10.0381Y-6.688
X10.1381Y-6.088
X10.1381Y-6.688
X10.2381Y-6.088
X10.2381Y-6.688
X10.3381Y-6.088
X10.3381Y-6.688
X10.4381Y-6.088
X10.4381Y-6.688
X10.5381Y-6.088
X10.5381Y-6.688
X10.6381Y-6.088
X10.6381Y-6.688
X10.7381Y-6.088
X10.7381Y-6.688
X10.8381Y-6.088
X10.8381Y-6.688
X10.9381Y-6.088
X10.9381Y-6.688
X11.0381Y-6.088
X11.0381Y-6.688
X11.1381Y-6.088
X11.1381Y-6.688
X11.2381Y-6.088
X11.2381Y-6.688
X11.3381Y-6.088
X11.3381Y-6.688
X11.4381Y-6.088
X11.4381Y-6.688
X11.5381Y-6.088
X11.5381Y-6.688
X11.6381Y-6.088
X11.6381Y-6.688
X11.7381Y-6.088
X11.7381Y-6.688
X5.2869Y-4.066
X5.2869Y-4.5581
X2.4484Y-2.5817
X2.9405Y-2.5817
X6.7397Y-3.6171
X6.7397Y-4.1093
X5.82Y-4.5964
X5.82Y-5.0885
X7.0303Y-5.3793
X7.0303Y-5.9793
X7.1303Y-5.3793
X7.1303Y-5.9793
X7.2303Y-5.3793
X7.2303Y-5.9793
X7.3303Y-5.3793
X7.3303Y-5.9793
X7.4303Y-5.3793
X7.4303Y-5.9793
X7.5303Y-5.3793
X7.5303Y-5.9793
X7.6303Y-5.3793
X7.6303Y-5.9793
X7.7303Y-5.3793
X7.7303Y-5.9793
X7.8303Y-5.3793
X7.8303Y-5.9793
X7.9303Y-5.3793
X7.9303Y-5.9793
X8.0303Y-5.3793
X8.0303Y-5.9793
X8.1303Y-5.3793
X8.1303Y-5.9793
X8.2303Y-5.3793
X8.2303Y-5.9793
X8.3303Y-5.3793
X8.3303Y-5.9793
X8.4303Y-5.3793
X8.4303Y-5.9793
X8.5303Y-5.3793
X8.5303Y-5.9793
X8.6303Y-5.3793
X8.6303Y-5.9793
X8.7303Y-5.3793
X8.7303Y-5.9793
X8.8303Y-5.3793
X8.8303Y-5.9793
X8.9303Y-5.3793
X8.9303Y-5.9793
X10.9459Y-6.814
X11.438Y-6.814
X6.119Y-4.5964
X6.119Y-5.0885
X11.3539Y-3.4597
X11.846Y-3.4597
X13.3224Y-5.7037
X13.8145Y-5.7037
X6.2549Y-7.109
X6.747Y-7.109
X7.8303Y-7.1604
X8.3224Y-7.1604
X9.8381Y-4.3557
X9.8381Y-4.9557
X9.9381Y-4.3557
X9.9381Y-4.9557
X10.0381Y-4.3557
X10.0381Y-4.9557
X10.1381Y-4.3557
X10.1381Y-4.9557
X10.2381Y-4.3557
X10.2381Y-4.9557
X10.3381Y-4.3557
X10.3381Y-4.9557
X10.4381Y-4.3557
X10.4381Y-4.9557
X10.5381Y-4.3557
X10.5381Y-4.9557
X10.6381Y-4.3557
X10.6381Y-4.9557
X10.7381Y-4.3557
X10.7381Y-4.9557
X10.8381Y-4.3557
X10.8381Y-4.9557
X10.9381Y-4.3557
X10.9381Y-4.9557
X11.0381Y-4.3557
X11.0381Y-4.9557
X11.1381Y-4.3557
X11.1381Y-4.9557
X11.2381Y-4.3557
X11.2381Y-4.9557
X11.3381Y-4.3557
X11.3381Y-4.9557
X11.4381Y-4.3557
X11.4381Y-4.9557
X11.5381Y-4.3557
X11.5381Y-4.9557
X11.6381Y-4.3557
X11.6381Y-4.9557
X11.7381Y-4.3557
X11.7381Y-4.9557
X4.4641Y-4.7982
X4.4641Y-5.2904
X3.2436Y-3.6093
X3.7358Y-3.6093
X2.4129Y-4.5896
X2.4129Y-4.8849
X6.6334Y-3.6171
X6.6334Y-4.1093
X3.7358Y-3.8691
X4.2279Y-3.8691
X7.8303Y-7.4266
X7.8303Y-8.0266
X7.9303Y-7.4266
X7.9303Y-8.0266
X8.0303Y-7.4266
X8.0303Y-8.0266
X8.1303Y-7.4266
X8.1303Y-8.0266
X8.2303Y-7.4266
X8.2303Y-8.0266
X8.3303Y-7.4266
X8.3303Y-8.0266
X8.4303Y-7.4266
X8.4303Y-8.0266
X8.5303Y-7.4266
X8.5303Y-8.0266
X8.6303Y-7.4266
X8.6303Y-8.0266
X8.7303Y-7.4266
X8.7303Y-8.0266
X8.8303Y-7.4266
X8.8303Y-8.0266
X8.9303Y-7.4266
X8.9303Y-8.0266
X12.6728Y-5.5856
X13.1649Y-5.5856
X4.3066Y-7.5935
X4.7988Y-7.5935
X6.1767Y-2.9872
X6.1767Y-3.4793
X11.5507Y-3.6762
X11.5507Y-4.1683
X13.3224Y-4.7455
X13.8145Y-4.7455
X5.4059Y-6.814
X5.898Y-6.814
X7.1165Y-2.6329
X7.1165Y-2.8329
X7.2165Y-2.6329
X7.2165Y-2.8329
X7.3165Y-2.6329
X7.3165Y-2.8329
X7.4165Y-2.6329
X7.4165Y-2.8329
X7.5165Y-2.6329
X7.5165Y-2.8329
X7.6165Y-2.6329
X7.6165Y-2.8329
X7.7165Y-2.6329
X7.7165Y-2.8329
X5.82Y-4.7932
X11.3964Y-8.5384
X11.8885Y-8.5384
X6.3263Y-2.9872
X6.3263Y-3.4793
X3.5783Y-4.3258
X4.0704Y-4.3258
X5.4059Y-7.0463
X5.898Y-7.0463
X2.745Y-8.017
X2.745Y-8.5091
X12.6728Y-5.94
X13.1649Y-5.94
X10.8421Y-4.0856
X11.3342Y-4.0856
X5.4054Y-7.4765
X5.8976Y-7.4765
X11.3736Y-5.1132
X11.8657Y-5.1132
X10.093Y-6.9776
X10.5852Y-6.9776
X6.9247Y-7.2148
X6.9247Y-7.5148
X7.0247Y-7.2148
X7.0247Y-7.5148
X7.1247Y-7.2148
X7.1247Y-7.5148
X7.2247Y-7.2148
X7.2247Y-7.5148
X7.3247Y-7.2148
X7.3247Y-7.5148
X7.4247Y-7.2148
X7.4247Y-7.5148
X7.5247Y-7.2148
X7.5247Y-7.5148
X12.1057Y-4.3557
X12.1057Y-4.8478
X4.602Y-5.834
X5.0941Y-5.834
X2.6177Y-3.6053
X3.1098Y-3.6053
X4.346Y-6.5305
X4.8381Y-6.5305
X5.393Y-6.037
X5.8851Y-6.037
X5.8736Y-3.6171
X5.8736Y-4.1093
X12.0429Y-5.625
X12.535Y-5.625
X10.1728Y-3.9833
X10.6649Y-3.9833
X10.093Y-6.874
X10.5852Y-6.874
X6.8555Y-7.654
X6.8555Y-8.1461
X6.5271Y-3.617
X6.5271Y-4.117
X12.7121Y-4.581
X13.2043Y-4.581
X5.4059Y-7.1616
X5.898Y-7.1616
X6.3106Y-3.9124
X2.6177Y-3.3612
X3.1098Y-3.3612
X12.7121Y-4.9163
X13.2043Y-4.9163
X6.968Y-5.1919
X7.4602Y-5.1919
X10.6649Y-5.2589
X11.157Y-5.2589
X12.535Y-7.703
X13.0271Y-7.703
X5.7043Y-2.9872
X5.7043Y-3.4793
X10.8421Y-4.188
X11.3342Y-4.188
X4.6019Y-5.73
X5.094Y-5.73
X5.6023Y-7.4765
X3.368Y-8.765
X3.368Y-9.165
X10.1728Y-3.6762
X10.6649Y-3.6762
X6.019Y-4.5964
X6.019Y-5.0885
X2.535Y-5.088
X2.535Y-5.388
X2.635Y-5.088
X2.635Y-5.388
X2.735Y-5.088
X2.735Y-5.388
X2.835Y-5.088
X2.835Y-5.388
X2.935Y-5.088
X2.935Y-5.388
X3.035Y-5.088
X3.035Y-5.388
X3.135Y-5.088
X3.135Y-5.388
X3.235Y-5.088
X3.235Y-5.388
X3.335Y-5.088
X3.335Y-5.388
X4.3066Y-7.4754
X4.7988Y-7.4754
X11.9249Y-7.603
X12.417Y-7.603
X6.9799Y-7.0817
X7.472Y-7.0817
X10.038Y-7.8376
X10.038Y-8.3297
X11.4027Y-5.8809
X11.8948Y-5.8809
X11.2751Y-3.1053
X11.7673Y-3.1053
X2.535Y-4.5888
X2.535Y-4.8888
X2.635Y-4.5888
X2.635Y-4.8888
X2.735Y-4.5888
X2.735Y-4.8888
X2.835Y-4.5888
X2.835Y-4.8888
X2.935Y-4.5888
X2.935Y-4.8888
X3.035Y-4.5888
X3.035Y-4.8888
X3.135Y-4.5888
X3.135Y-4.8888
X3.235Y-4.5888
X3.235Y-4.8888
X3.335Y-4.5888
X3.335Y-4.8888
X12.0625Y-3.586
X12.5547Y-3.586
X11.9247Y-6.903
X12.4169Y-6.903
X7.3279Y-7.654
X7.3279Y-8.1461
X10.8421Y-3.6762
X11.3342Y-3.6762
X13.3224Y-6.962
X13.8145Y-6.962
X12.0429Y-5.9793
X12.535Y-5.9793
X11.2751Y-2.9872
X11.7673Y-2.9872
X13.3224Y-5.8219
X13.8145Y-5.8219
X6.4917Y-2.9872
X6.9838Y-2.9872
X7.0299Y-4.1683
X7.522Y-4.1683
X10.8421Y-3.8809
X11.3342Y-3.8809
X2.6177Y-3.4793
X3.1098Y-3.4793
X12.535Y-7.103
X13.0271Y-7.103
X6.319Y-4.5964
X6.319Y-5.0885
X4.602Y-5.938
X5.0941Y-5.938
X11.9247Y-7.303
X12.4169Y-7.303
X6.419Y-4.5964
X6.419Y-5.0885
X10.389Y-3.17
X10.8811Y-3.17
X12.6925Y-2.9478
X13.1846Y-2.9478
X12.535Y-6.803
X13.0271Y-6.803
X3.605Y-9.157
X4.0971Y-9.157
X3.2436Y-3.4951
X3.7358Y-3.4951
X11.9247Y-7.703
X12.4169Y-7.703
X6.619Y-4.5964
X6.619Y-5.0885
X13.3224Y-5.3494
X13.8145Y-5.3494
X12.6728Y-5.3494
X13.1649Y-5.3494
X5.269Y-5.721
X5.269Y-6.2131
X10.1561Y-7.8376
X10.1561Y-8.3297
X10.628Y-7.837
X10.628Y-8.3291
X5.4059Y-6.9282
X5.898Y-6.9282
X7.8303Y-7.2786
X8.3224Y-7.2786
X2.4129Y-4.0896
X2.4129Y-4.3849
X4.3066Y-7.2392
X4.7988Y-7.2392
X7.1704Y-7.654
X7.1704Y-8.1461
X4.7397Y-4.7982
X4.7397Y-5.2904
X5.708Y-5.3289
X5.708Y-5.821
X11.9247Y-7.103
X12.4169Y-7.103
X12.0429Y-5.3494
X12.535Y-5.3494
X6.7192Y-5.6841
X6.7192Y-6.1762
X11.2751Y-3.3415
X11.7673Y-3.3415
X13.3224Y-5.4675
X13.8145Y-5.4675
X6.255Y-6.8849
X6.7471Y-6.8849
X7.0289Y-6.2156
X7.521Y-6.2156
X11.8854Y-4.9951
X12.3775Y-4.9951
X4.363Y-5.539
X4.363Y-6.0311
X3.0665Y-2.7982
X3.5586Y-2.7982
X4.346Y-6.6486
X4.8381Y-6.6486
X13.3224Y-4.9163
X13.8145Y-4.9163
X6.3106Y-3.6171
X6.3106Y-4.1093
X12.6728Y-5.8219
X13.1649Y-5.8219
X12.0629Y-3.885
X12.555Y-3.885
X7.477Y-7.654
X7.477Y-8.1461
X10.3893Y-3.3022
X10.8814Y-3.3022
X12.8106Y-3.2234
X13.3027Y-3.2234
X7.013Y-7.654
X7.013Y-8.1461
X11.2948Y-5.4431
X11.2948Y-5.7431
X11.3948Y-5.4431
X11.3948Y-5.7431
X11.4948Y-5.4431
X11.4948Y-5.7431
X11.5948Y-5.4431
X11.5948Y-5.7431
X11.6948Y-5.4431
X11.6948Y-5.7431
X11.7948Y-5.4431
X11.7948Y-5.7431
X11.8948Y-5.4431
X11.8948Y-5.7431
X11.9051Y-4.3557
X11.9051Y-4.8478
X4.5319Y-4.6801
X5.024Y-4.6801
X5.4129Y-4.066
X5.4129Y-4.5581
X3.6964Y-5.0738
X4.1885Y-5.0738
X6.846Y-3.6171
X6.846Y-4.1093
X4.2602Y-6.798
X4.2602Y-7.098
X4.3602Y-6.798
X4.3602Y-7.098
X4.4602Y-6.798
X4.4602Y-7.098
X4.5602Y-6.798
X4.5602Y-7.098
X4.6602Y-6.798
X4.6602Y-7.098
X4.7602Y-6.798
X4.7602Y-7.098
X4.8602Y-6.798
X4.8602Y-7.098
X4.9602Y-6.798
X4.9602Y-7.098
X12.0429Y-5.7431
X12.535Y-5.7431
X10.8421Y-3.7786
X11.3342Y-3.7786
X11.9247Y-6.803
X12.4169Y-6.803
X5.4054Y-7.634
X5.8976Y-7.634
X5.974Y-4.4045
X6.074Y-4.3045
X6.174Y-4.4045
X12.8106Y-3.3809
X13.3027Y-3.3809
X12.535Y-6.7025
X13.0271Y-6.7025
X12.3057Y-4.3557
X12.3057Y-4.8478
X4.3066Y-7.7116
X4.7988Y-7.7116
X2.6177Y-3.8494
X3.1098Y-3.8494
X6.4917Y-3.088
X6.9838Y-3.088
X7.6303Y-6.3636
X7.6303Y-6.9636
X7.7303Y-6.3636
X7.7303Y-6.9636
X7.8303Y-6.3636
X7.8303Y-6.9636
X7.9303Y-6.3636
X7.9303Y-6.9636
X8.0303Y-6.3636
X8.0303Y-6.9636
X8.1303Y-6.3636
X8.1303Y-6.9636
X8.2303Y-6.3636
X8.2303Y-6.9636
X8.3303Y-6.3636
X8.3303Y-6.9636
X8.4303Y-6.3636
X8.4303Y-6.9636
X8.5303Y-6.3636
X8.5303Y-6.9636
X8.6303Y-6.3636
X8.6303Y-6.9636
X8.7303Y-6.3636
X8.7303Y-6.9636
X8.8303Y-6.3636
X8.8303Y-6.9636
X8.9303Y-6.3636
X8.9303Y-6.9636
X10.1728Y-4.0856
X10.6649Y-4.0856
X12.535Y-7.203
X13.0271Y-7.203
X6.219Y-5.6839
X6.219Y-6.176
X12.0625Y-3.436
X12.5547Y-3.436
X12.7121Y-4.2864
X13.2043Y-4.2864
X2.4484Y-2.9085
X2.9405Y-2.9085
X10.3893Y-3.4597
X10.8814Y-3.4597
X2.535Y-4.0896
X2.535Y-4.3896
X2.635Y-4.0896
X2.635Y-4.3896
X2.735Y-4.0896
X2.735Y-4.3896
X2.835Y-4.0896
X2.835Y-4.3896
X2.935Y-4.0896
X2.935Y-4.3896
X3.035Y-4.0896
X3.035Y-4.3896
X3.135Y-4.0896
X3.135Y-4.3896
X3.235Y-4.0896
X3.235Y-4.3896
X3.335Y-4.0896
X3.335Y-4.3896
X12.0629Y-3.735
X12.555Y-3.735
X11.9249Y-7.503
X12.417Y-7.503
X11.6649Y-3.6759
X11.6649Y-4.168
X4.3659Y-4.504
X4.858Y-4.504
X4.3263Y-4.7982
X4.3263Y-5.2904
X9.4442Y-7.8809
X9.9364Y-7.8809
X3.5783Y-4.6408
X4.0704Y-4.6408
X10.179Y-3.295
X10.179Y-3.495
X10.279Y-3.395
X11.9249Y-7.403
X12.417Y-7.403
X6.419Y-5.6841
X6.419Y-6.1762
X13.0035Y-8.5384
X13.4956Y-8.5384
X4.532Y-5.503
X4.6698Y-5.503
X7.0303Y-3.3715
X7.0303Y-3.9715
X7.1303Y-3.3715
X7.1303Y-3.9715
X7.2303Y-3.3715
X7.2303Y-3.9715
X7.3303Y-3.3715
X7.3303Y-3.9715
X7.4303Y-3.3715
X7.4303Y-3.9715
X7.5303Y-3.3715
X7.5303Y-3.9715
X7.6303Y-3.3715
X7.6303Y-3.9715
X7.7303Y-3.3715
X7.7303Y-3.9715
X7.8303Y-3.3715
X7.8303Y-3.9715
X7.9303Y-3.3715
X7.9303Y-3.9715
X8.0303Y-3.3715
X8.0303Y-3.9715
X8.1303Y-3.3715
X8.1303Y-3.9715
X8.2303Y-3.3715
X8.2303Y-3.9715
X8.3303Y-3.3715
X8.3303Y-3.9715
X8.4303Y-3.3715
X8.4303Y-3.9715
X8.5303Y-3.3715
X8.5303Y-3.9715
X8.6303Y-3.3715
X8.6303Y-3.9715
X8.7303Y-3.3715
X8.7303Y-3.9715
X8.8303Y-3.3715
X8.8303Y-3.9715
X8.9303Y-3.3715
X8.9303Y-3.9715
X13.5192Y-5.7037
X9.4444Y-7.3329
X9.4444Y-7.6329
X9.5444Y-7.3329
X9.5444Y-7.6329
X9.6444Y-7.3329
X9.6444Y-7.6329
X9.7444Y-7.3329
X9.7444Y-7.6329
X5.393Y-5.923
X5.8851Y-5.923
X6.4917Y-3.188
X6.9838Y-3.188
X12.4057Y-4.3557
X12.4057Y-4.8478
X12.535Y-7.603
X13.0271Y-7.603
X6.619Y-5.6841
X6.619Y-6.1762
X9.4444Y-7.7628
X9.9366Y-7.7628
X10.8617Y-7.6321
X10.8617Y-7.9321
X10.9617Y-7.6321
X10.9617Y-7.9321
X11.0617Y-7.6321
X11.0617Y-7.9321
X11.1617Y-7.6321
X11.1617Y-7.9321
X11.2617Y-7.6321
X11.2617Y-7.9321
X11.3617Y-7.6321
X11.3617Y-7.9321
X11.4617Y-7.6321
X11.4617Y-7.9321
X11.5617Y-7.6321
X11.5617Y-7.9321
X1.9574Y-2.928
X2.107Y-2.928
X12.6728Y-5.2313
X13.1649Y-5.2313
X12.0625Y-3.286
X12.5547Y-3.286
X13.3224Y-6.4518
X13.8145Y-6.4518
X5.87Y-5.6644
X5.87Y-5.7431
X3.8019Y-9.049
X12.2057Y-4.3557
X12.2057Y-4.8478
X3.2436Y-3.3612
X3.7358Y-3.3612
X12.535Y-7.403
X13.0271Y-7.403
X6.519Y-4.5964
X6.519Y-5.0885
X5.0625Y-3.9715
X5.0625Y-4.4636
X12.6728Y-5.7037
X13.1649Y-5.7037
X6.1192Y-5.6841
X6.1192Y-6.1762
X6.4208Y-3.617
X6.4208Y-4.117
X12.7121Y-4.7455
X13.2043Y-4.7455
X6.255Y-6.9971
X6.7471Y-6.9971
X3.6964Y-5.2313
X4.1885Y-5.2313
X10.8043Y-8.7746
X11.2964Y-8.7746
X6.6202Y-3.406
X6.758Y-3.406
X3.0665Y-2.9085
X3.5586Y-2.9085
X6.319Y-5.6841
X6.319Y-6.1762
X13.3224Y-5.2313
X13.8145Y-5.2313
X3.184Y-8.963
X3.184Y-9.1559
X12.0429Y-5.8612
X12.535Y-5.8612
X5.466Y-5.329
X5.466Y-5.8211
X9.3989Y-7.19
X9.891Y-7.19
X13.3224Y-5.5856
X13.8145Y-5.5856
X6.219Y-4.589
X6.219Y-5.089
X2.874Y-8.0169
X2.874Y-8.509
X13.5192Y-6.0581
X10.1484Y-5.94
X10.6405Y-5.94
X4.4641Y-4.0896
X4.4641Y-4.3896
X4.5641Y-4.0896
X4.5641Y-4.3896
X4.6641Y-4.0896
X4.6641Y-4.3896
X4.7641Y-4.0896
X4.7641Y-4.3896
T5
X5.146Y-8.936
X5.146Y-9.014
X5.146Y-9.09
X5.1728Y-4.2766
X5.235Y-7.609
X5.586Y-4.483
X7.133Y-7.082
X7.994Y-8.763
X8.074Y-8.763
X8.156Y-8.763
X9.016Y-7.157
X10.7485Y-8.224
X11.157Y-5.855
X11.75Y-7.0105
X11.75Y-7.397
X2.71Y-6.7425
X2.71Y-6.8425
X2.71Y-6.9425
X2.71Y-7.0425
X2.71Y-7.1425
X2.71Y-7.2425
X2.71Y-7.3425
X2.71Y-7.4425
X2.71Y-7.5425
X2.71Y-7.6425
X2.71Y-7.7425
X2.71Y-7.8425
X4.4641Y-3.8691
X4.5641Y-3.8691
X4.6641Y-3.8691
X4.7641Y-3.8691
X4.8641Y-3.8691
X13.7751Y-2.0817
X13.7751Y-2.19
X13.7751Y-2.2982
X13.7751Y-2.4065
X13.7751Y-2.5148
X13.8775Y-2.1358
X13.8775Y-2.2441
X13.8775Y-2.3524
X13.8775Y-2.4606
X12.885Y-5.083
X12.868Y-4.435
X12.968Y-4.435
X13.068Y-4.435
X13.168Y-4.435
X11.1964Y-8.2234
X11.2964Y-8.2234
X11.3964Y-8.2234
X11.4964Y-8.2234
X11.5964Y-8.2234
X11.6964Y-8.2234
X11.7964Y-8.2234
X11.8964Y-8.2234
X11.9964Y-8.2234
X12.0964Y-8.2234
X12.1964Y-8.2234
X12.2964Y-8.2234
X12.3964Y-8.2234
X12.4964Y-8.2234
X12.5964Y-8.2234
X12.6964Y-8.2234
X12.7964Y-8.2234
X12.8964Y-8.2234
X12.9964Y-8.2234
X13.0964Y-8.2234
X13.1964Y-8.2234
X13.2964Y-8.2234
X13.3964Y-8.2234
X13.4964Y-8.2234
X5.0602Y-7.098
X5.1602Y-7.098
X5.329Y-2.444
X5.429Y-2.444
X5.529Y-2.444
X5.629Y-2.444
X6.222Y-2.444
X13.7751Y-3.3415
X13.7751Y-3.4498
X13.7751Y-3.5581
X13.7751Y-3.6663
X13.7751Y-3.7746
X13.8775Y-3.3957
X13.8775Y-3.5039
X13.8775Y-3.6122
X13.8775Y-3.7205
X5.0602Y-6.798
X5.1602Y-6.798
X9.538Y-8.1415
X9.538Y-8.2415
X9.538Y-8.3415
X9.538Y-8.4415
X9.538Y-8.5415
X9.538Y-8.6415
X9.638Y-8.1415
X9.638Y-8.2415
X9.638Y-8.3415
X9.638Y-8.4415
X9.638Y-8.5415
X9.638Y-8.6415
T6
X3.687Y-1.7783
X3.687Y-2.487
X4.3553Y-6.159
X5.064Y-6.159
X12.1468Y-2.436
X12.2169Y-2.3179
X12.2869Y-2.436
X12.357Y-2.3179
X12.4271Y-2.436
X12.4972Y-2.3179
X12.5673Y-2.436
X12.6373Y-2.3179
X12.7074Y-2.436
X12.7775Y-2.3179
X12.8476Y-2.436
X12.9177Y-2.3179
X12.9877Y-2.436
X2.2Y-3.12
X2.9087Y-3.12
X10.36Y-3.006
X11.0687Y-3.006
X13.2633Y-7.4475
X13.972Y-7.4475
X3.0283Y-3.12
X3.737Y-3.12
T7
X5.1726Y-4.9152
X5.271Y-5.3089
X5.3694Y-4.9152
T8
X5.5783Y-2.1821
X5.6767Y-2.2805
X5.8736Y-2.1821
X6.0704Y-2.2805
X6.1688Y-2.1821
X2.8106Y-2.1821
X2.8106Y-2.3789
X2.909Y-2.2805
X3.1058Y-2.1821
X3.3027Y-2.2805
X3.4011Y-2.1821
X3.4011Y-2.3789
T9
X2.2003Y-2.0226
X2.2988Y-2.5148
X2.2988Y-2.6624
X2.2988Y-2.81
X2.3972Y-2.0226
T6
G00X3.9306Y-2.7392
M15
G01X3.9306Y-2.8494
M16
G05
G00X4.3696Y-1.8494
M15
G01X4.4405Y-1.8494
M16
G05
G00X4.3696Y-3.7392
M15
G01X4.4405Y-3.7392
M16
G05
G00X5.1117Y-2.7392
M15
G01X5.1117Y-2.8494
M16
G05
T8
G00X5.7751Y-1.7884
M15
G01X5.6728Y-1.7884
M16
G05
G00X6.0842Y-1.7884
M15
G01X5.9621Y-1.7884
M16
G05
G00X3.0173Y-1.7884
M15
G01X2.8952Y-1.7884
M16
G05
G00X3.3165Y-1.7884
M15
G01X3.1944Y-1.7884
M16
G05
T10
G00X12.4562Y-2.7116
M15
G01X12.6531Y-2.7116
M16
G05
G00X2.0429Y-6.7864
M15
G01X2.0429Y-6.5896
M16
G05
G00X5.7633Y-9.4439
M15
G01X5.9602Y-9.4439
M16
G05
G00X14.3263Y-6.7864
M15
G01X14.3263Y-6.5896
M16
G05
G00X11.2751Y-9.4439
M15
G01X11.472Y-9.4439
M16
G05
G00X5.7633Y-2.7116
M15
G01X5.9602Y-2.7116
M16
G05
G00X2.0429Y-4.1093
M15
G01X2.0429Y-3.9124
M16
G05
T0
M30
