M48
; DRILL file {KiCad (5.1.0)-1} date 04.03.2021 22:36:29
; FORMAT={-:-/ absolute / inch / decimal}
; #@! TF.CreationDate,2021-03-04T22:36:29+01:00
; #@! TF.GenerationSoftware,Kicad,Pcbnew,(5.1.0)-1
; #@! TF.FileFunction,NonPlated,1,2,NPTH
FMAT,2
INCH
T1C0.0945
T2C0.1181
T3C0.1260
T4C0.1339
T5C0.1378
T6C0.1575
T7C0.1732
T8C0.1772
T9C0.4724
%
G90
G05
T1
X5.5783Y-1.9852
X6.1688Y-1.9852
X2.8106Y-1.9852
X3.4011Y-1.9852
T2
X7.4169Y-2.2998
X8.8106Y-2.3006
X9.9106Y-2.3006
T3
X14.1688Y-3.066
X14.1688Y-4.0502
X14.1688Y-1.8061
X14.1688Y-2.7904
T4
X14.2082Y-8.9715
X2.2397Y-9.0108
X5.3106Y-1.8455
X7.7515Y-9.4439
X13.6177Y-1.8455
X11.1767Y-1.8455
X2.0035Y-1.8455
T5
X11.7799Y-2.003
X13.3547Y-2.003
T6
X5.271Y-5.1121
T7
X2.3184Y-3.4203
X12.9484Y-3.814
X2.2397Y-8.5384
X14.2082Y-8.5384
T8
X4.1142Y-2.751
X4.7791Y-2.7904
T5
G00X14.1058Y-2.2195
M15
G01X14.1058Y-2.377
M16
G05
G00X14.1058Y-3.4793
M15
G01X14.1058Y-3.6368
M16
G05
T9
G00X10.1925Y-7.4163
M15
G01X10.1925Y-7.5345
M16
G05
G00X6.2554Y-7.4163
M15
G01X6.2554Y-7.5345
M16
G05
T0
M30
